<?xml version="1.0" encoding="UTF-8" standalone="no"?>
<!-- Created with Inkscape (http://www.inkscape.org/) -->

<svg
   version="1.1"
   id="svg1"
   width="500"
   height="500"
   viewBox="0 0 548.11442 548.11441"
   sodipodi:docname="logo.svg"
   xml:space="preserve"
   inkscape:version="1.4 (e7c3feb100, 2024-10-09)"
   xmlns:inkscape="http://www.inkscape.org/namespaces/inkscape"
   xmlns:sodipodi="http://sodipodi.sourceforge.net/DTD/sodipodi-0.dtd"
   xmlns="http://www.w3.org/2000/svg"
   xmlns:svg="http://www.w3.org/2000/svg"><defs
     id="defs1" /><sodipodi:namedview
     id="namedview1"
     pagecolor="#848484"
     bordercolor="#000000"
     borderopacity="0.25"
     inkscape:showpageshadow="2"
     inkscape:pageopacity="0.0"
     inkscape:pagecheckerboard="0"
     inkscape:deskcolor="#d1d1d1"
     inkscape:zoom="0.5"
     inkscape:cx="-10"
     inkscape:cy="394"
     inkscape:window-width="1920"
     inkscape:window-height="1011"
     inkscape:window-x="0"
     inkscape:window-y="32"
     inkscape:window-maximized="1"
     inkscape:current-layer="g1" /><g
     inkscape:groupmode="layer"
     inkscape:label="Image"
     id="g1"
     transform="translate(284.3662,-248)"><circle
       style="fill:#ffffff;fill-rule:evenodd;stroke-width:1.09623"
       id="path19"
       cx="-10.309"
       cy="522.05719"
       r="274.05719" /><g
       id="g17"
       transform="translate(515.51401,347.15509)"><path
         style="fill:#0078bb"
         d="m -468.4404,354.37538 c 155.99266,-43.19316 192.31344,-248.64892 60.60862,-342.844774 -108.44629,-77.561256 -261.05257,-23.31946 -297.56765,105.766314 -2.54351,8.99163 0.48727,-8.76923 3.52208,-20.640004 39.60113,-154.90127 233.52081,-208.829476 348.11202,-96.80841469 C -234.67471,116.26806 -294.93352,320.03315 -458.28611,353.28542 c -3.89259,0.79238 -13.79735,2.42943 -14.47429,2.3923 -0.176,-0.01 1.768,-0.59571 4.32,-1.30234 z m -48,-7.13045 c 0,-0.40865 -33.09354,-148.58822 -33.09354,-148.58822 L -416.40653,65.506059 c 0,0 0.48398,-0.529145 -1.26072,4.430856 -17.19995,48.897605 -98.77315,277.916355 -98.77315,277.308015 z"
         id="path18"
         sodipodi:nodetypes="sssssscssccss" /><path
         style="fill:#004183"
         d="m -531.6404,425.57944 c -124.75463,-3.96191 -227.43221,-96.83173 -243.01532,-219.80252 -17.15238,-135.354255 76.37963,-260.079234 210.69532,-280.962312 7.01761,-1.091081 7.21708,-0.986678 1.28,0.66997 -186.22792,51.963941 -231.93062,294.432882 -77.44001,410.846582 130.85169,98.60099 324.64881,30.73529 364.36148,-127.59553 1.02434,-4.08396 1.05742,-3.26003 0.11415,2.84294 -19.45889,125.89835 -129.65015,218.0133 -255.99562,214.00087 z m -92.69667,-243.74916 c -40.42317,-9.00902 -73.66558,-16.54893 -73.66558,-16.54893 L -416.40653,65.506059 -549.53394,198.65671 c 0,0 -34.37996,-7.81741 -74.80313,-16.82643 z"
         id="path17"
         sodipodi:nodetypes="sssssscsscccs" /></g></g></svg>
