<?xml version="1.0" encoding="UTF-8" standalone="no"?>
<!-- Created with Inkscape (http://www.inkscape.org/) -->

<svg
   version="1.1"
   id="svg1"
   width="310.63669"
   height="312.90161"
   viewBox="-6 0 388.29586 391.12701"
   sodipodi:docname="logo.svg"
   inkscape:version="1.4 (e7c3feb100, 2024-10-09)"
   xmlns:inkscape="http://www.inkscape.org/namespaces/inkscape"
   xmlns:sodipodi="http://sodipodi.sourceforge.net/DTD/sodipodi-0.dtd"
   xmlns="http://www.w3.org/2000/svg"
   xmlns:svg="http://www.w3.org/2000/svg">
  <defs
     id="defs1" />
  <sodipodi:namedview
     id="namedview1"
     pagecolor="#000000"
     bordercolor="#000000"
     borderopacity="0.25"
     inkscape:showpageshadow="2"
     inkscape:pageopacity="0.0"
     inkscape:pagecheckerboard="0"
     inkscape:deskcolor="#d1d1d1"
     inkscape:zoom="0.75853905"
     inkscape:cx="150.2889"
     inkscape:cy="133.15069"
     inkscape:window-width="1920"
     inkscape:window-height="1011"
     inkscape:window-x="0"
     inkscape:window-y="32"
     inkscape:window-maximized="1"
     inkscape:current-layer="g1" />
  <g
     inkscape:groupmode="layer"
     inkscape:label="Image"
     id="g1"
     transform="translate(-488.44881,-175.56973)">
    <ellipse
       style="opacity:1;fill:#162d50;fill-opacity:1;fill-rule:evenodd;stroke-width:1.4909"
       id="path2"
       cx="676.59674"
       cy="371.13324"
       rx="194.14793"
       ry="195.56351" />
    <path
       id="rect1"
       style="opacity:1;fill:#ffffff;fill-opacity:1;fill-rule:evenodd"
       d="m 681.19603,207.22117 c -5.57126,-0.14114 -11.19363,0.002 -16.85743,0.43554 -39.44109,3.01968 -75.73048,19.80463 -103.27147,47.76367 -31.0056,31.47634 -47.24805,71.26845 -47.24805,115.72657 0,25.01207 4.37286,45.47803 14.66406,68.66797 19.56819,44.09437 60.42419,78.36722 107.64649,90.30273 21.5728,5.45257 42.90192,6.40423 66.57812,2.9707 45.43071,-6.58845 88.03601,-35.68084 113.41211,-77.4414 5.7856,-9.52111 7.67612,-13.37709 12.00782,-24.5 16.40279,-42.11868 14.80643,-89.28502 -4.41407,-130.5 l -3.96289,-8.5 -6.47852,12.94726 -6.47851,12.94727 3.10742,10.05273 c 5.92916,19.19296 7.75715,35.80201 6.06055,55.05274 -2.40719,27.31228 -11.43007,51.14579 -27.44726,72.5 -24.90151,33.19903 -59.31512,52.42506 -100.2461,56.00195 -34.51563,3.01626 -68.27248,-6.71141 -95.83789,-27.61523 -26.3516,-19.98329 -44.96233,-48.68853 -52.44922,-80.89649 -16.28928,-70.0748 23.24968,-142.11226 90.71289,-165.27148 44.27769,-15.19996 91.88906,-7.81782 129.25586,20.04101 l 5.09571,3.79883 11.29492,-3.06836 c 6.21238,-1.68656 12.10614,-3.31274 13.09765,-3.61523 1.5402,-0.46984 1.25108,-1.04957 -1.98632,-3.98047 -30.7566,-27.84475 -67.25699,-42.83239 -106.25587,-43.82031 z m 9.97852,37.83007 c -0.83811,0.32376 -119.9192,79.88264 -121.20899,80.98047 -0.075,0.0637 0.68686,23.51525 1.69336,52.11524 1.00639,28.6 1.85101,53.71557 1.875,55.81054 0.032,2.77161 0.38371,3.60454 1.28711,3.06055 0.68289,-0.41117 28.06085,-18.7233 60.83985,-40.69336 32.779,-21.97006 59.7556,-40.08108 59.94922,-40.24804 0.19359,-0.16694 -0.45787,-25.32002 -1.44728,-55.89454 -1.36379,-42.14854 -2.08648,-55.47924 -2.98827,-55.13086 z m 134.8125,9.99024 c -0.18404,-0.0872 -0.45893,-0.0523 -0.79101,0.0273 -12.23611,2.93446 -96.65964,26.11669 -96.64844,26.53906 0.01,0.29722 8.0761,5.02092 17.92969,10.49805 9.85352,5.47713 18.26035,10.42713 18.68164,11 0.4213,0.57286 3.81993,9.81602 7.55273,20.54102 8.68449,24.95226 8.46011,24.34594 8.88281,23.88867 0.1977,-0.21378 10.71811,-21.25571 23.37891,-46.76172 19.14079,-38.56052 22.30193,-45.12184 21.01367,-45.73242 z m -142.50781,5.92187 1.20507,38.5918 c 0.6627,21.22543 1.46074,41.52395 1.77345,45.10742 l 0.56835,6.51563 -51.75585,34.73437 c -28.46561,19.10404 -51.9213,34.73439 -52.125,34.73438 -0.20371,0 -0.64633,-4.8375 -0.98243,-10.75 -0.98852,-17.38973 -2.94682,-79.26549 -2.51953,-79.60157 0.21581,-0.16962 23.66618,-15.83901 52.11328,-34.82031 z m -12.80469,45.28321 c -0.6829,0.39475 -5.37631,3.59477 -10.4297,7.10937 l -9.18944,6.38867 0.002,9.55078 v 9.54883 l 2.83984,-1.84765 c 1.5623,-1.01651 6.24911,-4.09962 10.41602,-6.84961 l 7.57618,-5 0.0137,-9.8086 c 0.01,-7.56605 -0.27082,-9.64537 -1.22853,-9.09179 z m -41.4707,14.37304 -17.48438,11.76368 -17.48632,11.76367 0.15039,14.92383 c 0.1384,13.82422 0.40829,16.57566 1.625,16.57617 0.25279,-1e-5 7.86596,-4.98268 16.91796,-11.07422 9.0521,-6.09155 16.64505,-10.88769 16.87305,-10.6582 0.2279,0.22949 0.74518,4.31565 1.15039,9.08007 l 0.73633,8.66211 10.31641,-7.16601 10.31445,-7.16602 -0.65039,-8.52539 c -0.35799,-4.68895 -0.82472,-8.70018 -1.03711,-8.91406 -0.2124,-0.21387 -4.78387,2.57501 -10.16016,6.19726 l -9.77539,6.58594 -0.61523,-11.25976 c -0.3379,-6.19311 -0.67214,-13.40527 -0.74415,-16.02539 z m 72.83007,43.42383 c -1.19128,-0.29908 -22.6375,13.53504 -62.8125,40.51758 l -61.0039,40.9707 3.88867,1.58594 c 2.1385,0.87243 24.22658,10.53761 49.08398,21.47656 24.8574,10.93895 45.531,19.92541 45.94141,19.97071 0.4105,0.0453 28.01134,-18.21669 61.33594,-40.58204 33.3246,-22.36536 60.5918,-40.93673 60.5918,-41.26953 1e-5,-0.61879 -93.74698,-41.84689 -97.0254,-42.66992 z"
       sodipodi:nodetypes="ssssssssscccccsssssscccsssssscssssssscsssssscccccsssccsccccssccsccccssscccccscccscscccsssss" />
  </g>
</svg>
